<svg width="53" height="53" viewBox="0 0 53 53" fill="none" xmlns="http://www.w3.org/2000/svg">
<path d="M42.4 42.4C43.8056 42.4 45.1537 42.9584 46.1477 43.9523C47.1416 44.9463 47.7 46.2944 47.7 47.7C47.7 49.1056 47.1416 50.4537 46.1477 51.4477C45.1537 52.4416 43.8056 53 42.4 53C40.9944 53 39.6463 52.4416 38.6523 51.4477C37.6584 50.4537 37.1 49.1056 37.1 47.7C37.1 44.7585 39.4585 42.4 42.4 42.4ZM0 0H8.6655L11.1565 5.3H50.35C51.0528 5.3 51.7269 5.5792 52.2238 6.07617C52.7208 6.57314 53 7.24718 53 7.95C53 8.4005 52.8675 8.851 52.682 9.275L43.195 26.4205C42.294 28.037 40.545 29.15 38.5575 29.15H18.815L16.43 33.4695L16.3505 33.7875C16.3505 33.9632 16.4203 34.1317 16.5445 34.256C16.6688 34.3802 16.8373 34.45 17.013 34.45H47.7V39.75H15.9C14.4944 39.75 13.1463 39.1916 12.1523 38.1977C11.1584 37.2037 10.6 35.8556 10.6 34.45C10.6 33.5225 10.8385 32.648 11.236 31.906L14.84 25.4135L5.3 5.3H0V0ZM15.9 42.4C17.3056 42.4 18.6537 42.9584 19.6477 43.9523C20.6416 44.9463 21.2 46.2944 21.2 47.7C21.2 49.1056 20.6416 50.4537 19.6477 51.4477C18.6537 52.4416 17.3056 53 15.9 53C14.4944 53 13.1463 52.4416 12.1523 51.4477C11.1584 50.4537 10.6 49.1056 10.6 47.7C10.6 44.7585 12.9585 42.4 15.9 42.4ZM39.75 23.85L47.117 10.6H13.621L19.875 23.85H39.75Z" fill="#0C8CE9"/>
</svg>
