<svg width="22" height="22" viewBox="0 0 22 22" fill="none" xmlns="http://www.w3.org/2000/svg">
<path d="M17.9173 16.4579C18.111 16.6516 18.2199 16.9143 18.2199 17.1883C18.2199 17.4623 18.111 17.7251 17.9173 17.9188C17.7236 18.1125 17.4608 18.2214 17.1868 18.2214C16.9129 18.2214 16.6501 18.1125 16.4564 17.9188L11.0002 12.4609L5.54232 17.9171C5.34858 18.1108 5.08583 18.2196 4.81185 18.2196C4.53787 18.2196 4.27511 18.1108 4.08138 17.9171C3.88765 17.7233 3.77881 17.4606 3.77881 17.1866C3.77881 16.9126 3.88765 16.6499 4.08138 16.4561L9.53927 11L4.0831 5.54208C3.88936 5.34834 3.78053 5.08559 3.78053 4.81161C3.78053 4.53763 3.88936 4.27487 4.0831 4.08114C4.27683 3.88741 4.53959 3.77857 4.81357 3.77857C5.08754 3.77857 5.3503 3.88741 5.54404 4.08114L11.0002 9.53903L16.4581 4.08028C16.6518 3.88655 16.9146 3.77771 17.1886 3.77771C17.4625 3.77771 17.7253 3.88655 17.919 4.08028C18.1128 4.27401 18.2216 4.53677 18.2216 4.81075C18.2216 5.08473 18.1128 5.34749 17.919 5.54122L12.4611 11L17.9173 16.4579Z" fill="#0C8CE9"/>
</svg>
