<svg width="70" height="70" viewBox="0 0 70 70" fill="none" xmlns="http://www.w3.org/2000/svg">
<path d="M18.0962 9.05081C18.0962 9.05081 11.8071 11.6485 10.3306 12.7149C8.53135 14.0164 6.34385 15.6735 5.18447 17.8883C4.07432 20.0047 3.63135 21.6235 3.54932 24.336C3.46729 27.0485 6.36572 49.5742 6.36572 49.5742C6.36572 49.5742 22.072 64.3727 24.5493 65.4938C27.0267 66.6149 30.6798 67.9875 35.0657 67.9055C39.4517 67.8235 42.3337 66.4727 44.0126 65.6742C45.686 64.8758 65.5595 35.4539 65.7235 33.0586C65.8876 30.6633 66.0462 26.0969 65.9478 24.1664C65.8438 22.1867 65.4392 20.6063 64.4001 18.6102C63.361 16.6141 61.6548 14.6672 60.6212 13.7867C59.5821 12.9117 46.5392 7.05472 42.5907 6.16878C31.1829 3.62581 18.0962 9.05081 18.0962 9.05081Z" fill="#CECECE"/>
<path d="M8.44366 15.9141C8.52022 18.5883 10.6749 19.8242 15.0663 22.0555C19.4577 24.2867 30.6249 30.8328 35.2515 30.9914C39.878 31.15 57.028 20.7266 59.5054 19.1242C61.9554 17.5383 62.3655 15.0063 60.0632 13.2781C56.8694 10.8883 42.5905 4.26564 39.5609 3.15001C38.0132 2.58126 34.0702 1.69532 30.9421 2.90939C28.4702 3.86642 12.7913 11.1234 11.2765 12.0805C9.76163 13.0375 8.40538 14.4211 8.44366 15.9141Z" fill="#EAEAEA"/>
<path d="M18.7796 10.4563C17.8062 9.35704 10.9539 12.9445 10.9539 16.0016C10.9539 18.9656 17.1718 22.7391 18.7304 21.3391C19.8515 20.3328 15.8812 17.1938 16.4007 15.3781C16.9148 13.5625 19.6109 11.3859 18.7796 10.4563ZM25.5609 26.2938C24.4835 27.8524 31.3687 31.2047 35.5687 31.2047C39.5226 31.2047 45.9812 27.3438 45.15 26.2227C43.8046 24.407 40.5398 26.1133 35.4593 26.2227C32.6593 26.2828 26.682 24.6695 25.5609 26.2938ZM50.5367 21.35C51.882 22.2305 59.5546 18.3422 59.7078 16.0125C59.8609 13.6828 54.939 10.8828 53.539 11.8672C52.139 12.8516 53.9546 13.5789 53.4898 15.2852C53.025 16.9914 48.9234 20.2945 50.5367 21.35Z" fill="white"/>
<path d="M3.54387 24.6586C3.46184 27.4859 3.63137 44.7453 3.66965 47.0859C3.70793 49.6672 4.34231 52.5383 6.05949 54.0093C7.77668 55.4804 21.6837 64.3015 24.8118 65.6523C29.1923 67.5445 33.4525 65.4664 33.7587 60.7523C34.065 56.0328 33.879 41.6336 33.879 39.6758C33.879 37.7179 32.8946 34.8304 30.7509 33.3593C28.6071 31.8883 11.654 22.1648 9.91496 21.164C7.46496 19.7586 3.66965 20.4312 3.54387 24.6586Z" fill="#DFDFDF"/>
<path d="M38.653 33.5453C36.8155 35 36.0772 37.1 36.0772 39.3641C36.0772 41.6281 35.9569 59.0953 36.0171 60.8727C36.0772 62.65 38.5929 67.3696 42.514 66.2047C46.5663 65.0016 51.7069 61.3649 55.3819 59.1555C59.0569 56.9516 61.9226 55.0813 63.2022 54.0313C64.8429 52.6914 65.953 49.4485 66.0132 46.6922C66.0733 43.9961 65.9968 27.1196 65.9476 25.7961C65.8272 22.6899 64.5694 20.125 61.2007 20.8578C57.8319 21.5906 41.289 31.4617 38.653 33.5453Z" fill="#B8B8B8"/>
<path d="M35.1585 21.4375C39.3296 21.4375 42.7109 19.0062 42.7109 16.007C42.7109 13.0078 39.3296 10.5765 35.1585 10.5765C30.9875 10.5765 27.6062 13.0078 27.6062 16.007C27.6062 19.0062 30.9875 21.4375 35.1585 21.4375Z" fill="#FE4E27"/>
<path d="M14.4868 30.3789C15.4712 33.1242 15.1759 35.9679 13.0704 36.7226C10.9649 37.4773 8.44385 35.6015 7.47588 32.9164C6.48604 30.1711 6.73213 27.3218 8.89229 26.5726C11.0087 25.8453 13.5024 27.6336 14.4868 30.3789ZM28.3392 54.4687C29.5095 57.1375 29.4438 60.2984 27.3985 61.1953C25.3532 62.0922 22.5806 60.2273 21.4267 57.6133C20.2509 54.9445 20.4259 52.0187 22.4712 51.1219C24.522 50.225 27.1688 51.8 28.3392 54.4687ZM55.7595 36.6187C57.5478 37.6359 60.4243 36.3726 61.9063 33.7804C63.3884 31.1828 63.1368 28.257 61.354 27.2343C59.5657 26.2172 56.7384 27.475 55.2564 30.0726C53.7743 32.6648 53.9712 35.6015 55.7595 36.6187ZM48.6939 48.5078C50.5095 49.5687 53.4626 48.3054 55.0048 45.664C56.547 43.0281 56.3282 40.0258 54.5126 38.9648C52.697 37.9039 49.6837 39.0797 48.1415 41.7156C46.5993 44.3625 46.8837 47.4468 48.6939 48.5078ZM41.6774 60.6594C43.4329 61.7312 46.3478 60.55 47.9063 58.0015C49.4649 55.4531 49.3009 52.5164 47.5454 51.4445C45.7899 50.3726 43.072 51.1273 41.2782 53.9656C39.6814 56.4867 39.922 59.5875 41.6774 60.6594Z" fill="#2F2F2F"/>
</svg>
