<?xml version="1.0" encoding="UTF-8"?>
<svg bbheight="502.5329284667969" bbwidth="646.4032592773438" version="1.1" viewBox="0 0 442.81131 444.91165" xmlns="http://www.w3.org/2000/svg" xmlns:xlink="http://www.w3.org/1999/xlink">
 <defs>
  <linearGradient id="b">
   <stop stop-color="#a40000" offset="0"/>
   <stop stop-color="#d14040" offset="1"/>
  </linearGradient>
  <linearGradient id="a">
   <stop stop-color="#5c0000" offset="0"/>
   <stop stop-color="#c00" offset="1"/>
  </linearGradient>
  <linearGradient id="ag">
   <stop offset="0"/>
   <stop stop-opacity="0" offset="1"/>
  </linearGradient>
  <linearGradient id="af">
   <stop stop-color="#eeeeec" offset="0"/>
   <stop stop-color="#d3d7cf" offset="1"/>
  </linearGradient>
  <filter id="bd" color-interpolation-filters="sRGB">
   <feGaussianBlur stdDeviation="1.47088"/>
  </filter>
  <filter id="be" color-interpolation-filters="sRGB">
   <feGaussianBlur stdDeviation="2.46586"/>
  </filter>
  <filter id="bf" x="-.32186" y="-.02605" width="1.6437" height="1.0521" color-interpolation-filters="sRGB">
   <feGaussianBlur stdDeviation="2.81627"/>
  </filter>
  <filter id="bg" x="-.16707" y="-.2148" width="1.3341" height="1.4296" color-interpolation-filters="sRGB">
   <feGaussianBlur stdDeviation="2.81928"/>
  </filter>
  <linearGradient id="ax" x1="821.17" x2="837.5" y1="392.59" y2="426.87" gradientTransform="scale(.82162 1.2171)" gradientUnits="userSpaceOnUse" xlink:href="#b"/>
  <linearGradient id="ay" x1="820.4" x2="866.15" y1="516.48" y2="539.35" gradientTransform="scale(.82158 1.2172)" gradientUnits="userSpaceOnUse" xlink:href="#b"/>
  <linearGradient id="az" x1="661.47" x2="700.88" y1="333.03" y2="357.33" gradientTransform="scale(.82152 1.2173)" gradientUnits="userSpaceOnUse" xlink:href="#b"/>
  <linearGradient id="ba" x1="685.66" x2="727.85" y1="464.75" y2="485.85" gradientTransform="scale(.82161 1.2171)" gradientUnits="userSpaceOnUse" xlink:href="#b"/>
  <linearGradient id="bb" x1="231.12" x2="294.12" y1="-319.08" y2="-334.57" gradientTransform="matrix(1.0777 0 0 .38197 106.93 184.82)" gradientUnits="userSpaceOnUse">
   <stop stop-color="#a40000" offset="0"/>
   <stop offset="1"/>
  </linearGradient>
  <linearGradient id="bc" x1="246.63" x2="293.93" y1="-254.69" y2="-320.32" gradientTransform="matrix(.97464 0 0 .25867 121.29 146.96)" gradientUnits="userSpaceOnUse">
   <stop stop-color="#c00" offset="0"/>
   <stop stop-color="#690000" offset="1"/>
  </linearGradient>
  <linearGradient id="bh" x1="358.49" x2="406.12" y1="94.955" y2="118.77" gradientTransform="matrix(.82162 0 0 1.2171 -163.27 32.844)" gradientUnits="userSpaceOnUse" xlink:href="#a"/>
  <linearGradient id="ah" x1="247.98" x2="290.18" y1="187.25" y2="229.46" gradientTransform="matrix(.82173 0 0 1.217 -163.27 32.844)" gradientUnits="userSpaceOnUse" xlink:href="#a"/>
  <linearGradient id="ai" x1="239.06" x2="282.13" y1="125.17" y2="168.24" gradientTransform="matrix(.82162 0 0 1.2171 -163.27 32.844)" gradientUnits="userSpaceOnUse" xlink:href="#a"/>
  <linearGradient id="aj" x1="228.9" x2="272.84" y1="59.004" y2="80.974" gradientTransform="matrix(.82158 0 0 1.2172 -163.27 32.844)" gradientUnits="userSpaceOnUse" xlink:href="#a"/>
  <linearGradient id="ak" x1="365.18" x2="410.93" y1="232.21" y2="277.96" gradientTransform="matrix(.82158 0 0 1.2172 -163.27 32.844)" gradientUnits="userSpaceOnUse" xlink:href="#a"/>
  <linearGradient id="al" x1="361.41" x2="408.1" y1="167.94" y2="202.9" gradientTransform="matrix(.82158 0 0 1.2172 -163.27 32.844)" gradientUnits="userSpaceOnUse" xlink:href="#a"/>
  <linearGradient id="am" x1="234.81" x2="234.81" y1="694.61" y2="642.36" gradientTransform="matrix(1.6419 0 0 .60904 -163.27 32.844)" gradientUnits="userSpaceOnUse">
   <stop stop-color="#2e3436" offset="0"/>
   <stop stop-color="#2e3436" stop-opacity="0" offset="1"/>
  </linearGradient>
  <linearGradient id="an" x1="1142.9" x2="1223" y1="93.896" y2="93.896" gradientTransform="matrix(.3246 0 0 3.0807 -163.27 32.844)" gradientUnits="userSpaceOnUse">
   <stop stop-color="#babdb6" offset="0"/>
   <stop stop-color="#d3d7cf" offset="1"/>
  </linearGradient>
  <linearGradient id="ao" x1="379.17" x2="258.81" y1="118.44" y2="205.46" gradientTransform="matrix(1.4425 0 0 .69325 -163.27 32.844)" gradientUnits="userSpaceOnUse">
   <stop stop-color="#fff" offset="0"/>
   <stop stop-color="#fff" stop-opacity="0" offset="1"/>
  </linearGradient>
  <linearGradient id="ap" x1="159.53" x2="264.19" y1="88.356" y2="198.93" gradientTransform="matrix(1.4769 0 0 .67711 -163.27 32.844)" gradientUnits="userSpaceOnUse">
   <stop stop-color="#fff" offset="0"/>
   <stop stop-color="#fff" stop-opacity="0" offset="1"/>
  </linearGradient>
  <linearGradient id="aq" x1="1087" x2="1087" y1="38.753" y2="124.24" gradientTransform="matrix(.35557 0 0 2.8124 -163.27 32.844)" gradientUnits="userSpaceOnUse" xlink:href="#af"/>
  <linearGradient id="ar" x1="401.57" x2="358.02" y1="577.98" y2="437.11" gradientTransform="matrix(1.3331 0 0 .75013 -163.27 32.844)" gradientUnits="userSpaceOnUse" xlink:href="#ag"/>
  <linearGradient id="as" x1="205.28" x2="243.72" y1="511.96" y2="422.43" gradientTransform="matrix(1.2504 0 0 .79975 -163.27 32.844)" gradientUnits="userSpaceOnUse" xlink:href="#ag"/>
  <linearGradient id="at" x1="358.57" x2="151.53" y1="273.65" y2="65.408" gradientTransform="matrix(.8148 0 0 1.2273 -163.27 32.844)" gradientUnits="userSpaceOnUse">
   <stop stop-color="#babdb6" offset="0"/>
   <stop stop-color="#babdb6" stop-opacity="0" offset="1"/>
  </linearGradient>
  <linearGradient id="au" x1="395.99" x2="386.69" y1="-12.635" y2="285.22" gradientTransform="matrix(.99762 0 0 1.0024 -163.27 32.844)" gradientUnits="userSpaceOnUse" xlink:href="#af"/>
  <linearGradient id="av" x1="231.12" x2="294.12" y1="-319.08" y2="-334.57" gradientTransform="matrix(1.0777 0 0 .38197 106.78 233.68)" gradientUnits="userSpaceOnUse">
   <stop stop-color="#a40000" offset="0"/>
   <stop offset="1"/>
  </linearGradient>
  <linearGradient id="aw" x1="246.63" x2="293.93" y1="-254.69" y2="-320.32" gradientTransform="matrix(.97464 0 0 .25867 121.14 195.82)" gradientUnits="userSpaceOnUse">
   <stop stop-color="#c00" offset="0"/>
   <stop stop-color="#690000" offset="1"/>
  </linearGradient>
 </defs>
 <path d="m205.18 441.57c-2.27-0.71-6.65-2.74-9.73-4.5-8.47-4.84-151.44-108.49-156.85-113.71-5.78-5.58-8.28-11.83-10.29-25.7-0.8-5.59-7.14-53.81-14.07-107.16-14.38-110.58-14.44-111.43-8.6-123.65 5.34-11.167 16.93-20.462 30.22-24.222 13.34-3.7762 185.46-40.632 189.75-40.632 4.69 0 169.43 36.136 182.2 39.967 15.16 4.547 27.4 16.215 31.42 29.964 0.87 2.987 1.58 9.04 1.58 13.451 0 11.173-21.72 221.95-23.52 228.25-2.91 10.21-4.08 11.07-90.76 66.98-89.44 57.68-89.53 57.74-97.4 60.45-6.54 2.25-17.63 2.48-23.95 0.51z" fill="url(#au)" label="Capa 1"/>
 <path d="m9.261 63.438-5.75 8.312c-3.41 9.808-1.6 23.941 10.72 118.75 6.93 53.35 13.29 101.56 14.09 107.15 2.01 13.87 4.5 20.14 10.29 25.72 5.4 5.21 148.37 108.84 156.84 113.69 3.08 1.76 7.44 3.79 9.72 4.5 6.32 1.98 17.42 1.75 23.97-0.5 4.46-1.54 6.95-2.59 24.12-13.41l0.66-1.47s-31.82 10.62-41.72-9.18l-3.53-229.13c-5.66-21.68-19.8-35.57-36.06-45.94l-162.63-67.902c-2.5-5.25-0.72-10.594-0.72-10.594z" fill="url(#at)" label="Capa 1"/>
 <path d="m29.031 299.07c2 13.87 3.79 18.72 9.58 24.3 5.4 5.21 148.37 108.84 156.84 113.69 3.08 1.76 7.44 3.79 9.72 4.5 6.32 1.98 17.42 1.75 23.97-0.5 4.46-1.54 6.95-2.59 24.12-13.41l0.66-1.47s-31.11 12.03-41.01-7.77l-183.88-119.34z" fill="url(#as)" opacity=".99" label="Capa 1"/>
 <path d="m417.61 305.54c-2.78 13.74-13.33 35.47-10.93 23.73 1.5-7.36-141.56 90.37-150.3 94.73-3.17 1.58-7.64 3.36-9.95 3.94-6.42 1.62-17.5 0.77-23.91-1.85-4.36-1.79-6.79-2.97-23.33-14.75l-0.57-1.5s30.39 13.76 41.39-5.45l177.6-98.85z" fill="url(#ar)" opacity=".99" label="Capa 1"/>
 <path d="m212.73 155.7 21 0.5-15 259h-2l-4-259.5z" fill="url(#aq)" filter="url(#bf)" opacity=".99" label="Capa 1"/>
 <path d="m217.23 160.2 2.5-8-207-83.998h-2l206.5 91.998z" fill="url(#ap)" filter="url(#bd)" opacity=".99" label="Capa 1"/>
 <path d="m222.23 162.7 0.5-7.5 209-87.998h2l-211.5 95.498z" fill="url(#ao)" filter="url(#be)" opacity=".99" label="Capa 1"/>
 <path d="m241.73 151.95c0 8.7-9.07 15.75-20.25 15.75s-20.25-7.05-20.25-15.75 9.07-15.75 20.25-15.75 20.25 7.05 20.25 15.75z" fill="#efefed" filter="url(#bg)" opacity=".44898" label="Capa 1"/>
 <path d="m206.73 175.2 14 144 14-144v262.51c-11.5 6.05-28 1.73-28 1.73v-264.24z" fill="url(#an)"/>
 <path d="m248.97 429.01-31.46-4.95-21.92 12.37 18.38 7.43 12.73-0.71 22.27-14.14z" fill="url(#am)"/>
 <path d="m172.02 265.67c0 15.69-7.77 28.41-18.37 28.41-10.59 0-19.99-12.72-19.99-28.41 0-15.7 5.63-28.42 17.96-28.42 10.59 0 20.4 12.72 20.4 28.42z" fill="url(#al)"/>
 <path d="m174.34 343.33c0 15.37-7.61 27.84-17.99 27.84-10.39 0-19.6-12.47-19.6-27.84 0-15.38 5.52-27.85 17.6-27.85 10.38 0 19.99 12.47 19.99 27.85z" fill="url(#ak)"/>
 <path d="m60.891 131.4c0 14.772-7.31 26.742-17.28 26.742s-18.82-11.97-18.82-26.742c0-14.768 5.3-26.74 16.9-26.74 9.97 0 19.2 11.972 19.2 26.74z" fill="url(#aj)"/>
 <path d="m68.531 211.4c0 14.47-7.17 26.2-16.94 26.2s-18.44-11.73-18.44-26.2 5.19-26.21 16.56-26.21c9.77 0 18.82 11.74 18.82 26.21z" fill="url(#ai)"/>
 <path d="m75.181 286.4c0 14.18-7.03 25.68-16.6 25.68-9.58 0-18.08-11.5-18.08-25.68 0-14.19 5.09-25.68 16.23-25.68 9.58 0 18.45 11.49 18.45 25.68z" fill="url(#ah)"/>
 <g transform="matrix(-.94857 0 0 .94857 932.83 -275.97)">
  <path d="m707.68 490.56c0 16.01-7.93 28.99-18.74 28.99s-20.4-12.98-20.4-28.99 5.74-28.99 18.32-28.99c10.81 0 20.82 12.98 20.82 28.99z" fill="url(#ax)"/>
  <path d="m711.61 656.49c0 15.37-7.61 27.84-17.99 27.84-10.39 0-19.6-12.47-19.6-27.84 0-15.38 5.52-27.85 17.6-27.85 10.38 0 19.99 12.47 19.99 27.85z" fill="url(#ay)"/>
  <path d="m579.51 432.12c0 14.77-7.31 26.75-17.28 26.75s-18.82-11.98-18.82-26.75c0-14.76 5.3-26.74 16.9-26.74 9.97 0 19.2 11.98 19.2 26.74z" fill="url(#az)"/>
  <path d="m598.01 591.34c0 14.19-7.02 25.68-16.6 25.68-9.57 0-18.07-11.49-18.07-25.68 0-14.18 5.09-25.68 16.23-25.68 9.57 0 18.44 11.5 18.44 25.68z" fill="url(#ba)"/>
  <path d="m702.64 494.01c0 15.7-7.78 28.42-18.37 28.42s-20-12.72-20-28.42c0-15.69 5.64-28.41 17.96-28.41 10.6 0 20.41 12.72 20.41 28.41z" fill="#fff" opacity=".25"/>
  <path d="m705.24 657.27c0 15.37-7.62 27.84-18 27.84s-19.6-12.47-19.6-27.84c0-15.38 5.52-27.85 17.6-27.85 10.38 0 20 12.47 20 27.85z" fill="#fff" opacity=".25"/>
  <path d="m592.19 594.21c0 14.48-7.17 26.21-16.94 26.21-9.78 0-18.45-11.73-18.45-26.21 0-14.47 5.2-26.2 16.56-26.2 9.78 0 18.83 11.73 18.83 26.2z" fill="#fff" opacity=".25"/>
  <path d="m573.66 434.97c0 15.07-7.46 27.28-17.64 27.28-10.17 0-19.2-12.21-19.2-27.28s5.41-27.29 17.24-27.29c10.18 0 19.6 12.22 19.6 27.29z" fill="#fff" opacity=".25"/>
 </g>
 <g transform="translate(-151.47 -36.816)">
  <path d="m410.2 69.025c0 6.6286-15.156 12-33.857 12s-33.857-5.3714-33.857-12 15.156-12 33.857-12 33.857 5.3714 33.857 12z" fill="url(#bb)"/>
  <path d="m407.77 71.884c0 4.2977-14.317 9.1956-31.982 9.1956s-31.982-4.8979-31.982-9.1956 14.317-7.7803 31.982-7.7803 31.982 3.4826 31.982 7.7803z" fill="url(#bc)"/>
 </g>
 <path d="m170.41 177.4c0 16.01-7.93 28.99-18.74 28.99s-20.4-12.98-20.4-28.99 5.74-28.99 18.32-28.99c10.81 0 20.82 12.98 20.82 28.99z" fill="url(#bh)"/>
 <path d="m170.03 178.28c2.91 13.24-1.29 25.42-10.23 27.39-8.94 1.96-19.23-7.03-22.15-20.27-2.91-13.24-0.52-25.02 9.88-27.31 8.94-1.96 19.58 6.95 22.5 20.19z" fill="#fff" opacity=".25"/>
 <path d="m172.2 265.85c2.85 12.98-1.26 24.91-10.02 26.84s-18.85-6.88-21.71-19.86c-2.85-12.97-0.5-24.52 9.69-26.76 8.76-1.93 19.19 6.81 22.04 19.78z" fill="#fff" opacity=".25"/>
 <path d="m173.88 342.92c2.8 12.72-1.24 24.42-9.82 26.3-8.59 1.89-18.47-6.74-21.27-19.46-2.8-12.71-0.5-24.03 9.49-26.22 8.58-1.89 18.8 6.67 21.6 19.38z" fill="#fff" opacity=".25"/>
 <path d="m63.381 132.64c2.8 12.719-1.24 24.409-9.82 26.299-8.59 1.89-18.47-6.74-21.27-19.46-2.8-12.718-0.5-24.031 9.49-26.228 8.58-1.888 18.8 6.672 21.6 19.389z" fill="#fff" opacity=".25"/>
 <path d="m71.071 210.7c2.74 12.46-1.21 23.92-9.63 25.77-8.41 1.85-18.1-6.61-20.84-19.07s-0.49-23.55 9.3-25.7c8.41-1.85 18.43 6.54 21.17 19z" fill="#fff" opacity=".25"/>
 <path d="m77.761 286.77c2.69 12.21-1.19 23.44-9.43 25.25-8.25 1.82-17.74-6.47-20.43-18.69-2.69-12.21-0.48-23.07 9.11-25.18 8.25-1.82 18.06 6.4 20.75 18.62z" fill="#fff" opacity=".25"/>
 <g transform="translate(-163.27 32.844)" label="marco">
  <path d="m368.45 408.73c-2.27-0.71-6.65-2.74-9.73-4.5-8.47-4.84-151.44-108.49-156.85-113.71-5.78-5.58-8.28-11.83-10.29-25.7-0.8-5.59-7.14-53.81-14.07-107.16-14.38-110.58-14.44-111.43-8.6-123.65 5.34-11.167 16.93-20.462 30.22-24.222 13.34-3.7762 185.46-40.632 189.75-40.632 4.69 0 169.43 36.136 182.2 39.967 15.16 4.547 27.4 16.215 31.42 29.964 0.87 2.987 1.58 9.04 1.58 13.451 0 11.173-21.72 221.95-23.52 228.25-2.91 10.21-4.08 11.07-90.76 66.98-89.44 57.68-89.53 57.74-97.4 60.45-6.54 2.25-17.63 2.48-23.95 0.51z" fill="none" stroke="#888a85" stroke-width="4"/>
 </g>
 <g transform="translate(-151.47 -12.816)">
  <path d="m410.05 117.89c0 6.6286-15.156 12-33.857 12s-33.857-5.3714-33.857-12 15.156-12 33.857-12 33.857 5.3714 33.857 12z" fill="url(#av)"/>
  <path d="m407.62 120.75c0 4.2977-14.317 9.1956-31.982 9.1956s-31.982-4.8979-31.982-9.1956 14.317-7.7803 31.982-7.7803 31.982 3.4826 31.982 7.7803z" fill="url(#aw)"/>
 </g>
</svg>
