<svg width="89" height="91" viewBox="0 0 89 91" fill="none" xmlns="http://www.w3.org/2000/svg">
<path d="M86.0964 47.9018C87.9654 45.4504 89 42.4468 89 39.3219C89 34.3638 86.2076 29.6708 81.7131 27.0538C80.5561 26.3802 79.2387 26.0256 77.8972 26.0269H51.2195L51.887 12.4558C52.0428 9.17627 50.8746 6.06233 48.6051 3.68822C47.4914 2.51805 46.1476 1.58701 44.657 0.952652C43.1664 0.318294 41.5606 -0.0059078 39.9387 8.14942e-05C34.1537 8.14942e-05 29.0363 3.8649 27.501 9.39711L17.9446 43.7388H3.56C1.59087 43.7388 0 45.3178 0 47.2723V87.4665C0 89.4209 1.59087 91 3.56 91H37.0073H70.4546C71.4781 91 72.4794 90.8012 73.4027 90.4037C78.6982 88.1621 82.1136 83.0274 82.1136 77.3296C82.1136 75.9382 81.9134 74.569 81.5129 73.2439C83.3819 70.7925 84.4165 67.789 84.4165 64.664C84.4165 63.2727 84.2163 61.9034 83.8158 60.5784C85.6848 58.127 86.7194 55.1234 86.7194 51.9985C86.6971 50.6071 86.4969 49.2268 86.0964 47.9018ZM8.01 83.0495V51.6893H17.0212V83.0495H8.01ZM78.8095 44.0701L76.3731 46.1681L77.9195 48.9729C78.429 49.8968 78.6931 50.9342 78.6871 51.9874C78.6871 53.8094 77.8861 55.543 76.5066 56.7356L74.0703 58.8337L75.6166 61.6384C76.1261 62.5623 76.3902 63.5998 76.3842 64.653C76.3842 66.475 75.5833 68.2086 74.2038 69.4012L71.7674 71.4992L73.3138 74.304C73.8232 75.2279 74.0874 76.2653 74.0814 77.3185C74.0814 79.792 72.6129 82.0226 70.3434 83.0385H24.1413V51.3359L35.2106 11.5283C35.4961 10.508 36.1088 9.60782 36.956 8.96421C37.8031 8.32061 38.8386 7.96863 39.9054 7.96161C40.7509 7.96161 41.5852 8.20454 42.2527 8.70145C43.3541 9.51858 43.9437 10.7553 43.877 12.0694L42.809 33.9774H77.786C79.7662 35.181 80.99 37.2128 80.99 39.3219C80.99 41.1438 80.189 42.8664 78.8095 44.0701Z" fill="black"/>
</svg>
